<svg><path d="M34,28.161c0,1.422,0.813,2.653,2,3.256v0.498c-0.332,0.045-0.671,0.07-1.016,0.07 c-2.125,0-4.042-0.892-5.398-2.321C28.767,29.882,27.898,30,26.999,30c-4.971,0-9-3.582-9-8s4.029-8,9-8s9,3.582,9,8 c0,1.73-0.618,3.331-1.667,4.64C34.119,27.103,33.999,27.619,34,28.161L34,28.161z M16,0c8.702,0,15.781,5.644,15.995,12.672 c-1.537-0.685-3.237-1.047-4.995-1.047c-2.986,0-5.807,1.045-7.942,2.943c-2.214,1.968-3.433,4.607-3.433,7.432 c0,1.396,0.298,2.747,0.867,3.993C16.329,25.997,16.165,26,16,26c-0.849,0-1.682-0.054-2.495-0.158 C10.068,29.279,5.966,29.895,2,29.986v-0.841C4.142,28.096,6,26.184,6,24c0-0.305-0.024-0.604-0.068-0.897 C2.313,20.72,0,17.079,0,13C0,5.82,7.163,0,16,0z"></path><path d="M82,17.484L66,5.064l-16,12.42V12.42L66,0l16,12.42V17.484z M78,17.033v12h-8v-8h-8v8h-8v-12l12-9L78,17.033 z"></path><path d="M110,2h-8v8h8V2z M112,0L112,0v12h-12V0H112z M104,4h4v4h-4V4z M130,2h-8v8h8V2z M132,0L132,0v12h-12V0H132z M124,4h4v4h-4V4z M110,22h-8v8h8V22z M112,20L112,20v12h-12V20H112z M104,24h4v4h-4V24z M114,0h2v2h-2V0z M116,2h2v2h-2V2z M114,4 h2v2h-2V4z M116,6h2v2h-2V6z M114,8h2v2h-2V8z M116,10h2v2h-2V10z M114,12h2v2h-2V12z M114,16h2v2h-2V16z M116,18h2v2h-2V18z M114,20h2v2h-2V20z M116,22h2v2h-2V22z M114,24h2v2h-2V24z M116,26h2v2h-2V26z M114,28h2v2h-2V28z M116,30h2v2h-2V30z M130,16h2v2 h-2V16z M102,16h2v2h-2V16z M104,14h2v2h-2V14z M100,14h2v2h-2V14z M108,14h2v2h-2V14z M110,16h2v2h-2V16z M112,14h2v2h-2V14z M118,16h2v2h-2V16z M120,14h2v2h-2V14z M122,16h2v2h-2V16z M124,14h2v2h-2V14z M126,16h2v2h-2V16z M128,14h2v2h-2V14z M130,20h2v2 h-2V20z M118,20h2v2h-2V20z M120,18h2v2h-2V18z M122,20h2v2h-2V20z M126,20h2v2h-2V20z M128,18h2v2h-2V18z M130,24h2v2h-2V24z M118,24h2v2h-2V24z M120,22h2v2h-2V22z M124,22h2v2h-2V22z M126,24h2v2h-2V24z M128,22h2v2h-2V22z M130,28h2v2h-2V28z M120,26h2v2 h-2V26z M122,28h2v2h-2V28z M124,26h2v2h-2V26z M126,28h2v2h-2V28z M120,30h2v2h-2V30z M124,30h2v2h-2V30z M128,30h2v2h-2V30z"></path></svg>